<svg xmlns="http://www.w3.org/2000/svg" viewBox="0 0 100 100" preserveAspectRatio="xMidYMid" width="217" height="217" style="shape-rendering: auto; display: block; background: transparent;" xmlns:xlink="http://www.w3.org/1999/xlink"><g><g transform="rotate(0 50 50)">
  <rect fill="#e81b23" height="11" width="11" ry="5.5" rx="5.5" y="24.5" x="44.5">
    <animate repeatCount="indefinite" begin="-0.5093378607809846s" dur="0.5376344086021505s" keyTimes="0;1" values="1;0" attributeName="opacity"></animate>
  </rect>
</g><g transform="rotate(18.94736842105263 50 50)">
  <rect fill="#e81b23" height="11" width="11" ry="5.5" rx="5.5" y="24.5" x="44.5">
    <animate repeatCount="indefinite" begin="-0.48104131295981883s" dur="0.5376344086021505s" keyTimes="0;1" values="1;0" attributeName="opacity"></animate>
  </rect>
</g><g transform="rotate(37.89473684210526 50 50)">
  <rect fill="#e81b23" height="11" width="11" ry="5.5" rx="5.5" y="24.5" x="44.5">
    <animate repeatCount="indefinite" begin="-0.452744765138653s" dur="0.5376344086021505s" keyTimes="0;1" values="1;0" attributeName="opacity"></animate>
  </rect>
</g><g transform="rotate(56.8421052631579 50 50)">
  <rect fill="#e81b23" height="11" width="11" ry="5.5" rx="5.5" y="24.5" x="44.5">
    <animate repeatCount="indefinite" begin="-0.4244482173174872s" dur="0.5376344086021505s" keyTimes="0;1" values="1;0" attributeName="opacity"></animate>
  </rect>
</g><g transform="rotate(75.78947368421052 50 50)">
  <rect fill="#e81b23" height="11" width="11" ry="5.5" rx="5.5" y="24.5" x="44.5">
    <animate repeatCount="indefinite" begin="-0.3961516694963214s" dur="0.5376344086021505s" keyTimes="0;1" values="1;0" attributeName="opacity"></animate>
  </rect>
</g><g transform="rotate(94.73684210526316 50 50)">
  <rect fill="#e81b23" height="11" width="11" ry="5.5" rx="5.5" y="24.5" x="44.5">
    <animate repeatCount="indefinite" begin="-0.3678551216751556s" dur="0.5376344086021505s" keyTimes="0;1" values="1;0" attributeName="opacity"></animate>
  </rect>
</g><g transform="rotate(113.6842105263158 50 50)">
  <rect fill="#e81b23" height="11" width="11" ry="5.5" rx="5.5" y="24.5" x="44.5">
    <animate repeatCount="indefinite" begin="-0.3395585738539898s" dur="0.5376344086021505s" keyTimes="0;1" values="1;0" attributeName="opacity"></animate>
  </rect>
</g><g transform="rotate(132.6315789473684 50 50)">
  <rect fill="#e81b23" height="11" width="11" ry="5.5" rx="5.5" y="24.5" x="44.5">
    <animate repeatCount="indefinite" begin="-0.311262026032824s" dur="0.5376344086021505s" keyTimes="0;1" values="1;0" attributeName="opacity"></animate>
  </rect>
</g><g transform="rotate(151.57894736842104 50 50)">
  <rect fill="#e81b23" height="11" width="11" ry="5.5" rx="5.5" y="24.5" x="44.5">
    <animate repeatCount="indefinite" begin="-0.28296547821165813s" dur="0.5376344086021505s" keyTimes="0;1" values="1;0" attributeName="opacity"></animate>
  </rect>
</g><g transform="rotate(170.52631578947367 50 50)">
  <rect fill="#e81b23" height="11" width="11" ry="5.5" rx="5.5" y="24.5" x="44.5">
    <animate repeatCount="indefinite" begin="-0.2546689303904923s" dur="0.5376344086021505s" keyTimes="0;1" values="1;0" attributeName="opacity"></animate>
  </rect>
</g><g transform="rotate(189.47368421052633 50 50)">
  <rect fill="#e81b23" height="11" width="11" ry="5.5" rx="5.5" y="24.5" x="44.5">
    <animate repeatCount="indefinite" begin="-0.2263723825693265s" dur="0.5376344086021505s" keyTimes="0;1" values="1;0" attributeName="opacity"></animate>
  </rect>
</g><g transform="rotate(208.42105263157896 50 50)">
  <rect fill="#e81b23" height="11" width="11" ry="5.5" rx="5.5" y="24.5" x="44.5">
    <animate repeatCount="indefinite" begin="-0.1980758347481607s" dur="0.5376344086021505s" keyTimes="0;1" values="1;0" attributeName="opacity"></animate>
  </rect>
</g><g transform="rotate(227.3684210526316 50 50)">
  <rect fill="#e81b23" height="11" width="11" ry="5.5" rx="5.5" y="24.5" x="44.5">
    <animate repeatCount="indefinite" begin="-0.1697792869269949s" dur="0.5376344086021505s" keyTimes="0;1" values="1;0" attributeName="opacity"></animate>
  </rect>
</g><g transform="rotate(246.31578947368422 50 50)">
  <rect fill="#e81b23" height="11" width="11" ry="5.5" rx="5.5" y="24.5" x="44.5">
    <animate repeatCount="indefinite" begin="-0.14148273910582906s" dur="0.5376344086021505s" keyTimes="0;1" values="1;0" attributeName="opacity"></animate>
  </rect>
</g><g transform="rotate(265.2631578947368 50 50)">
  <rect fill="#e81b23" height="11" width="11" ry="5.5" rx="5.5" y="24.5" x="44.5">
    <animate repeatCount="indefinite" begin="-0.11318619128466326s" dur="0.5376344086021505s" keyTimes="0;1" values="1;0" attributeName="opacity"></animate>
  </rect>
</g><g transform="rotate(284.2105263157895 50 50)">
  <rect fill="#e81b23" height="11" width="11" ry="5.5" rx="5.5" y="24.5" x="44.5">
    <animate repeatCount="indefinite" begin="-0.08488964346349745s" dur="0.5376344086021505s" keyTimes="0;1" values="1;0" attributeName="opacity"></animate>
  </rect>
</g><g transform="rotate(303.1578947368421 50 50)">
  <rect fill="#e81b23" height="11" width="11" ry="5.5" rx="5.5" y="24.5" x="44.5">
    <animate repeatCount="indefinite" begin="-0.05659309564233163s" dur="0.5376344086021505s" keyTimes="0;1" values="1;0" attributeName="opacity"></animate>
  </rect>
</g><g transform="rotate(322.10526315789474 50 50)">
  <rect fill="#e81b23" height="11" width="11" ry="5.5" rx="5.5" y="24.5" x="44.5">
    <animate repeatCount="indefinite" begin="-0.028296547821165814s" dur="0.5376344086021505s" keyTimes="0;1" values="1;0" attributeName="opacity"></animate>
  </rect>
</g><g transform="rotate(341.05263157894734 50 50)">
  <rect fill="#e81b23" height="11" width="11" ry="5.5" rx="5.5" y="24.5" x="44.5">
    <animate repeatCount="indefinite" begin="0s" dur="0.5376344086021505s" keyTimes="0;1" values="1;0" attributeName="opacity"></animate>
  </rect>
</g><g></g></g><!-- [ldio] generated by https://loading.io --></svg>