<svg xmlns="http://www.w3.org/2000/svg" viewBox="19.99999999999997 146.0807512263003 535.0004571477845 282.83849754739936"> <g transform="rotate(0 150.82637942950376 287.5)"><svg xmlns="http://www.w3.org/2000/svg" xmlns:xlink="http://www.w3.org/1999/xlink" version="1.1" id="Layer_1" x="89.99999999999997" y="216.0807512263003" viewBox="65.70000457763672 26.394197463989258 622.4097900390625 730.8021240234375" xml:space="preserve" height="142.8384975473994" width="121.65275885900758" preserveAspectRatio="xMinYMin" enable-background="new 0 0 753.9 780.7" fill="#787aff" style="overflow: visible;"><path class="st0" d="M387.8,550.5c-0.1,9.3-0.2,18.5-0.3,27.8c-0.2,14.7,5.8,26.1,17,35c4.8,3.9,9.8,7.4,15,10.7  c4.6,2.8,8.3,5.7,8.9,11.7c0.5,4.7,1.8,9.4,3,14.7l0.1,0c0,0,0,0,0-0.1l25.1,6.2l-6.7-2c-5.8-1.7-8.8-5.7-10-11.3  c-0.9-4.2-1.8-8.4-3-14.3c7.8,1.4,14.6,2.1,21.1,4.1c6.6,2,12.8,5.5,19.4,7.9c2.9,0.9,5,3.3,5.5,6.3c1.2,5.3,2.5,10.5,4,16.8  l0.2,0.1c0,0,0-0.1,0-0.1l8,2c-7.1-5.9-6.3-14.9-9.4-23.2l37,2.7l0.3-2.6c-4.4-0.9-8.8-2.4-13.3-2.6c-16-0.8-31.5-5.8-45-14.6  c-7.8-5.1-12.4-11-13.8-20c-0.6-4,0.7-4.9,4.3-5.2c10.8-1,21.7,1.3,31.3,6.6c7.3,4.1,15.1,5.6,23.5,5.5c32.5-0.6,65-0.9,97.4-1.2  c9.8-0.1,19.5,0,29.3,0c0.1-0.8,0.1-1.5,0.1-2.3c-35,0-70-0.4-104.9,0.2c-14.4,0.3-27.3-2.7-39.5-9.9c-2.2-1.3-4.3-2.8-6.6-3.5  c-6.1-1.8-12.3-4.1-18.6-4.8c-8.2-0.8-16.6,0-25-0.2c-16.5-0.3-28.3-12.2-28.4-28.5c0-10.6-0.1-21.3-0.1-31.9l-10.3,8  c0,8.5-0.1,17-0.3,25.5c-0.3,16.1,8.1,26.1,21.3,33.3c2.9,1.6,6.1,2.8,9.3,3.4c4.3,0.8,5.9,3.2,6.9,7.2c1.1,4.6,2.9,9,4.8,14.4  c-4.1-0.8-7.7-1-10.8-2.3c-12.3-5.3-23.5-12.4-30.6-23.9c-3.1-5.1-4.9-10.9-5.1-16.8c-0.3-12.3-0.4-24.6-0.4-37l-8.7,6.7  L387.8,550.5z" style="fill: #1a1617; fill-opacity: 1;"></path><path class="st1" d="M487,664.2c0,0.5,0.1,0.9,0.3,1.3c-10-3-19.7-5.8-29.2-8.6l-1.5-0.4l-25.1-6.2c0,0,0,0,0,0.1  c0.1,0.3,0.1,0.5,0.2,0.8c-14.6-1-27.3-3.7-36.5-15c-8.1-10-11.7-21.7-11.7-34.3c0-15.9-0.1-31.8-0.1-47.7l-11.1,8.6  c0,13.1,0,26.2,0.3,39.4c0.3,13.5,3.7,26.3,12.1,37.4c5.3,7,12.9,10.8,20.1,15.3c1.9,1.2,4.4,2.7,4.9,4.5c1.2,4.7,1.5,9.7,2.2,15  h-31.6c-0.1,0.5-0.2,1-0.3,1.5c1.9,0.8,3.7,2,5.6,2.3c8.1,1.2,16.2,1.9,24.2,3.1c2.2,0.4,4.2,1.4,5.7,3.1c10.1,11.6,24,16.4,37.6,22  c-1-1.3-1.9-2.8-3.2-3.7c-5.7-3.8-11.5-7.5-17.4-10.9c-12.8-7.3-11.5-20.4-14.7-33.1c9.7,1,18.1,2,26.5,2.7c5,0.4,8.2,2.4,9.7,7.6  c1.4,4.9,3.7,9.6,5.7,14.4c0.8,1.8,1.8,3.6,2.8,5.3l1.8-0.7l-8-23.8c3.4,0.5,6.2,0.7,8.9,1.3c10.9,2.3,21.7,4.7,32.5,7.3  c2.8,0.7,4.3,2.3,3.8,5.8c-0.5,4.3,2.1,7.1,5.8,7.1s6.3-3.3,6-7.2s-3.2-5.8-7.3-5.8c-2-0.2-3.8-0.9-5.5-2c-1.5-0.9-2.6-2.5-4.1-3.6  c-0.4-0.3-0.7-0.5-1-0.8L495,666l-8-2C487,664.1,487,664.1,487,664.2z" style="fill: #3F63C8; fill-opacity: 1;"></path><path class="st2" d="M387.8,470c2-4.7,3.2-9.7,3.4-14.8c0.6-11,0.6-22,0-33c-0.2-2.7,0.1-5.5,0.9-8.1l0,0c1.2-3.6,3.5-6.5,7.3-9.5  c34.1-26.9,67.7-54.4,101.6-81.6c4.7-3.8,7.4-8.4,7.4-14.5c0-10.2,0-20.3,0-30.5c0-5-1.5-10.5,4.5-13.6c0.5-0.3,0.6-1.4,0.9-2.3  l1,2.3l1-0.2V122.2l-1.8,0v135.1l-10.2-2.7c-0.1-37.1-0.2-74.2-0.4-111.4c-0.1-9-0.9-18-1.2-26.9c-0.1-2.4,0.2-4.8,1-7.1  c1.2-3.5,1.2-6.7-2.3-8.1c-1.6-0.7-5.1,0.3-6.3,1.7c-2.7,3.1-0.4,5.7,2.1,8c1.1,1,2.3,2.5,2.3,3.8c0.8,17.6,1.8,35.3,2,52.9  c0.3,35.4,0.1,70.7,0.2,106.1c0,9.7-0.1,19.3,0,29c0.3,4.2-1.5,8.3-4.8,11c-5.4,4.5-10.7,9-16.1,13.4c-3.9,3.1-8,6-12.1,9.1  c-2.8-11.5-0.7-20.3,8.7-27.2c4.8-3.5,8.8-8.1,12.9-12.5c1.5-1.7,2.4-3.8,2.6-6c0.1-44.5,0-88.9,0.1-133.4c0.1-2.5,1.1-4.9,2.7-6.8  c3.1-3.9,2.6-8.4-2-9.4c-1.8-0.4-5.4,0.3-5.6,1.1c-0.4,2.8-0.3,5.6,0.3,8.4c0.4,2.2,2.1,4.4,2.2,6.6c0.2,9.5,0.1,19,0.1,28.5  c0,31.1-0.4,62.3,0,93.4c0.1,9.5-1.7,17.2-9.7,23c-2.7,1.9-4.5,5-7.2,6.9c-8.8,6.3-10.7,14.9-9.7,25.1c0.1,2.9-1.1,5.6-3.2,7.5  c-14.7,12.3-29.7,24.2-44.5,36.3c-7.9,6.5-15.8,13.1-23.9,19.9c-0.3-0.6-0.5-1.3-0.6-1.9c0-28.2-0.1-56.5,0.1-84.7l-10.3-7.3  c0,0,0,0,0,0l-0.1,0c0,3.5,0,7,0,10.7c-1-0.3-1.4-0.4-1.6-0.6c-21.1-20.8-42.3-41.5-63.3-62.4c-1.4-1.6-2.2-3.6-2.5-5.7  c0.2,2.1,1.1,4.1,2.5,5.7c15.9,15.8,31.8,31.5,47.8,47.2l-3.9,9.8c6.3,6,12.6,12,18.9,18c1.1,0.9,1.8,2.2,2,3.7  c0.2,14.3,0.1,28.6,0.1,43.7v0c-1.8-1.5-3-2.4-4.1-3.5c-10.1-9.5-20.2-19-30.3-28.4l-3.9,9.8c-3.3-3-6.6-6-9.9-9.1  c14.6,13.4,29.2,26.8,43.7,40.4c2,1.8,3.9,4.8,4,7.3c0.1,5.6,0.2,11.2,0.3,16.7l4.8,3.1l-4.8-3.1c0.3,17.4,0.3,34.8,0.4,52.2  c0,1.8-1,3.6-1.5,5.4h-1.6c-0.5-3.1-1.4-6.2-1.5-9.3c-0.2-8.2-0.5-16.3,0-24.5c0.5-9.8-3.2-17.6-10.3-23.9  c-19.3-17.3-38.8-34.5-58.3-51.7c-3.1-2.7-4.7-5.5-4.6-9.8c0.2-19.3,0.1-38.6,0.2-58c0-5.4-1.5-9.9-5.7-13.7  c-5.3-4.8-10.4-9.8-15.2-15.2c-2-2.2-3.8-5.3-4-8.1c-0.7-9.4-0.6-18.9-1.1-28.4c0-2.1-0.6-4.1-1.8-5.9c-5.9-7-12.2-13.6-18.2-20.6  c-1.6-1.8-2.6-4.1-2.8-6.5c-0.3-9-0.1-18-0.3-27c-0.1-3.3,1-5.4,3.9-6.6c0.1-0.5,0.3-1,0.1-1.4c-1.2-2.5-2.1-5.3-3.9-7.3  c-0.6-0.6-4.1,0.6-5.5,1.9c-2.6,2.4-0.7,5.1,0.4,7.7c1,2.2,1.6,4.6,1.7,7.1c0.1,46.1,0.2,92.3,0.2,138.5v6.2l-2,0.7  c-2.3-3.9-6.4-7.8-6.6-11.8c-0.9-25-1-50-1.2-74.9c-0.1-15.3,0-30.6,0-45.9c1.3-0.1,2.7-0.3,4-0.6c3.4-1,5.8-3.1,4.8-6.9  c-0.9-3.5-3.3-5.1-7.1-4.5c-4.2,0.6-4.3,3.5-4.3,6.6c0,1.5,0.4,3,0.4,4.5c-0.2,24.8-0.5,49.6-0.6,74.5c0,17.5,0.2,34.9,0.7,52.4  c0.2,3.1,1.3,6.1,3,8.7c2.2,3.4,4.8,6.4,7.8,9c21.6,18.5,43.4,36.8,64.9,55.4c14.9,12.9,29.4,26.1,44,39.2  c5.2,4.6,7.4,10.4,7.3,17.3c-0.2,9.3-0.2,18.7,0.1,28c0,3.3,0.7,6.6,2,9.6c3.4,7.8,5,16.3,4.8,24.8c-0.2,16.6-0.8,33.3-0.9,49.9  c0,6.2-0.1,12.4-0.1,18.6l11.1-8.6c0-21.4,0-42.8,0-64.2C383.3,482.8,385.1,476.5,387.8,470z M503.8,254.6  C503.9,254.8,503.8,254.7,503.8,254.6L503.8,254.6z M253,260.7l-0.3-0.1v-56.8h0.3V260.7z M295,336.7L295,336.7  c-0.2,2.9,0,5.8,0,10.1c-3.9-3-7-5.1-9.8-7.6c-9.2-8.1-18.5-16.2-27.5-24.6c-2-2.1-3.1-4.8-3.2-7.7c-0.2-32.6,0-65.2,0-97.9v-8.2  l12.8,11.4h0c-0.3,3-0.7,6-0.8,9c-0.3,12.6-0.4,25.1-0.6,37.7c-0.2,10.8-0.4,21.6-0.4,32.4c-0.1,4.9,2,9.5,5.7,12.7  c5.7,5.1,10.7,11,16.4,16C292.7,324.7,295.4,329.9,295,336.7z M294.8,320.5L294.8,320.5c-8.2-7.8-16.5-15.3-24.3-23.4  c-1.7-1.7-2-5.2-2-7.9c0.1-21.5,0.7-42.9,0.8-64.4c0-4.2-1.2-8.3-1.9-12.5c5.3,4,7.2,9.1,6.9,15.9c-0.4,8.9,0.3,17.9,0.9,26.9  c0.2,2.3,1.1,4.4,2.5,6.2c3,4,6.4,7.7,10.1,11c5,3.9,7.7,10.1,7.2,16.5c-0.3,9.6,0.1,19.3,0.1,28.9  C295.1,318.7,295,319.6,294.8,320.5z" style="fill: #28394b; fill-opacity: 1;"></path><path class="st2" d="M333.3,284.7L333.3,284.7c0,6.5,0,13.1,0,19.6C333.3,297.8,333.3,291.2,333.3,284.7z" style="fill: #28394b; fill-opacity: 1;"></path><path class="st2" d="M268.6,93c0,0,0.1-0.1,0.1-0.1c2.2-3.1,6.5-3.7,9.6-1.5c1.5,1.1,2.4,2.5,2.7,4.1c-0.3-1.6-1.2-3-2.7-4.2  c-3.1-2.2-7.4-1.6-9.6,1.5C268.7,92.8,268.6,92.9,268.6,93c-2.4,3.4-1.6,8.3,1.9,10.7c0,0,0.1,0,0.1,0.1  C267.1,101.3,266.2,96.5,268.6,93z" style="fill: #28394b; fill-opacity: 1;"></path><path class="st2" d="M333.2,324C333.2,324,333.2,324,333.2,324c-0.2,3.3,1.2,6.5,3.7,8.6c2.3,2.1,4.6,4.3,7,6.5  c-2.3-2.2-4.6-4.4-7-6.5C334.4,330.5,333,327.3,333.2,324z" style="fill: #28394b; fill-opacity: 1;"></path><path class="st2" d="M304.2,200.9c4.9,4.3,8.1,10.2,9,16.6C312.3,211.2,309.1,205.2,304.2,200.9c-8.2-7.6-16-15.6-23.8-23.7  c-1.5-1.5-2.4-3.4-2.8-5.5c0.4,2.1,1.3,4,2.8,5.5C288.2,185.4,296,193.4,304.2,200.9z" style="fill: #28394b; fill-opacity: 1;"></path><path class="st0" d="M391.6,310.8L391.6,310.8c0-0.8,0-1.8,0-2.7c0-1.6,1.4-3.6,2.7-4.8c18.8-16.7,37.7-33.3,56.6-49.9  c3.2-2.8,4.9-6.8,4.7-11.1c-0.2-15.5,0.4-31-0.4-46.5c-0.4-9,3.4-14.8,10.1-19.5c-0.2,5.7-0.4,11.4-0.6,17l3.7-1.4v-18.7  c1-1.9,1.5-4.1,3-5.5c2.7-2.7,4.6-5.5,4-9.4c0.6-4.9,1.7-9.7,1.8-14.6c0.3-8.6,0-17.3,0.3-26c0.2-5.6-0.6-11.5,5.1-15.7  c3-2.2,2.2-7.5-0.5-9.8c-2.9-2.5-6-2.7-9-0.3s-2.9,6.2-0.6,9.9c1.4,2.2,2.7,5,2.7,7.4c-0.2,16.3-0.7,32.6-1.1,48.9  c-5.3,9.7-12.9,17.4-21.1,25.9v-7.4c-1.5,1.5-2.7,3.4-2.1,4.7c1.7,4.2-0.3,7-2.8,9.8c-3.1,3.5-6.1,7-9.4,10.3  c-11.5,11.3-23.2,22.5-34.7,33.8c-1.6,1.5-2.9,3.3-4.3,5l1.6,1.5l51.1-49.1c0,15.1,0.2,29.2-0.1,43.3c-0.2,2.7-1.4,5.2-3.4,7.1  c-12,10.8-24.4,21.2-36.5,31.8c-6.6,5.7-13.2,11.5-20.3,17.7c-0.1-1.2-0.3-1.8-0.3-2.4c0-26.5-0.1-53,0.1-79.5c0-2,1.5-4.3,3-5.8  c13.8-13.7,27.8-27.3,41.8-40.9c4.1-3.7,6.3-9,6.1-14.6c-0.4-23.3-0.3-46.6-0.5-70c-0.1-1.5-0.3-3-0.5-4.5h-1.7  c-0.4,1.9-0.6,3.9-0.7,5.8c-0.1,20,0,40-0.4,60c-0.1,3.2-1.3,7.1-3.5,9.3c-13.2,13.6-26.8,26.9-40.2,40.3c-1,1-2.1,1.8-3.8,3.2  c0-5.6-0.5-10.3,0.1-14.8c1-8.6-2.2-15.1-8.5-20.7c-1.9-1.7-4.2-4.2-4.4-6.4c-0.5-9.2-2.7-19,6.6-26c3.3-2.5,5.5-6.3,8.4-9.2  c5.5-5.2,8.4-12.6,7.7-20.2c-0.5-9-0.1-18-0.1-27c0-3.2,0.1-5.8,3.2-8.2c1.4-1.1,1-5.5,0-7.8c-0.4-1-4.7-1.7-6.3-0.8  c-3,1.5-3.4,4.6-1.6,7.8c0.8,1.4,1.9,2.8,1.9,4.3c0,12,0.1,24-0.4,36c-0.2,3.6-1.5,7-3.7,9.9c-4.8,6.2-10.5,11.6-15.4,17.7  c-1.9,2.6-3.2,5.6-3.7,8.8c-0.6,4-0.2,8.1-0.2,12.9l-8.6-8.4c0.1-6.8,0-13.5,0.5-20.3c0.2-3.3,0.7-7.5,2.7-9.6  c7.6-7.9,9.6-17,8.4-27.4c-0.4-3.1-0.5-6.3-0.5-9.4c0.1-1.8,0.4-4.2,1.5-5.4c3.1-3.3,2.2-6.1,0.2-9.4c-1.2-1.7-1.9-3.7-2.2-5.7  c-0.2-4.1-0.1-8.1,0-12.2c-0.3,3.9-0.4,7.8-1,11.6c-0.3,2-1.2,3.8-2.7,5.2c-4,3.5-4.2,7.4-0.2,10.8c1,0.9,2.4,2,2.5,3.2  c2,13.1,2.2,25.8-8,36.4c-2,2.1-3.8,5.5-3.9,8.3c-0.2,7.4,0.6,14.9,1,22.4c-2.4-2-5.1-3.8-7-6.2c-1.9-2.4-4.4-5.4-4.4-8.1  c-0.5-19.3-0.4-38.6-0.3-58c0-2,1.3-4.2,2.6-5.9c2.2-2.7,2.9-5.2,0.5-8c-1.9-2.2-4.3-3.4-7-1.3c-2.9,2.2-2.7,5.1-1.3,8.1  c0.7,1.6,2,3.3,2,4.9c-0.1,20.8-0.4,41.6-0.8,62.4c-0.1,5.3,0.9,9.9,4.5,13.7c7.4,7.9,14.7,15.9,22.2,23.6c3.4,3.3,5.2,7.8,5,12.5  c-0.1,24.5,0,49,0,73.4c0,1.6-0.1,3.1-0.3,5.8c-9-8.8-17.4-16.8-25.5-25.1c-1.3-1.3-1.7-3.9-1.8-6c-0.2-6.3,0.3-12.7-0.3-19  c-0.3-3.2-1.5-6.3-3.5-8.9c-5.8-6.8-12.1-13.3-18.4-19.7c-4-4-6.4-8.4-5.9-14.2c0.2-2.3,0-4.7-0.1-7v-0.1c0.4-1,0.7-2.1,0.8-3.2  c-0.2-22.5-0.5-45-0.8-67.5c-0.7,1.7-1.9,3.4-2,5.2c-0.4,25.8-0.7,51.6-1,77.3c-0.2,4.7,1.7,9.2,5.2,12.4  c6.6,6.2,12.9,12.7,19.2,19.2c1.2,1.3,2.9,2.9,3,4.4c0.3,7,0.1,14,0.1,22.1c-10.4-10.5-20.2-19.8-29.2-29.8c-2.9-3.6-4.7-8-5-12.6  c-0.9-16.3-1-32.6-1.2-48.9c-0.2-11.3-0.2-22.6-0.3-33.9c0.7-2.1,1.8-4.2,2-6.4c0.3-5.6-0.2-11.3,0.3-16.9c0.2-3.1,2.1-6,2.6-9.1  c0.5-2.9,1-6.4-0.2-8.8c-0.7-1.5-4.5-2.4-6.8-2.1c-1.6,0.2-4,2.6-4.1,4.2c-0.1,2.7,1.1,5.6,2.2,8.2s4.4,4.9,4.5,7.5  c0.4,7.1-0.3,14.2-0.5,21.3c-1.1-1.5-2.2-3.1-3.4-4.5c-2.1-2.4-4.9-4.7-7.6-2.1c-1.5,1.5-2.2,5.4-1.3,7.4c1.8,4.4,5.6,2.3,9.1,0.7  c0,2.2,0,3.8,0,5.5c-0.3,28.5-0.9,57-0.8,85.5c0,4.4,2.4,9.1,4.6,13.2c2,3.5,5.2,6.5,8.2,9.4c13.4,13.2,27,26.3,40.4,39.5  c5.8,5.7,13.4,10.8,16.3,17.8s1.2,16,1.3,24.2c0,2.4,0.1,4.8,0.1,7.2c0,0,0,0,0,0L391.6,310.8z" style="fill: #1a1617; fill-opacity: 1;"></path><path class="st0" d="M557.9,339.7c-3.9,4.3-7.4,8.9-10.6,13.7c-6.3,9.7-10.5,20.8-16.1,31c-2.4,4.3-5.5,8.2-9.1,11.5  c-5.3,5-11.3,9.3-16.8,14.1c-1.8,1.6-3,3.7-4.5,5.6l0.8,0.6l7.6-6.3c10-8.2,20.7-14.4,34.3-13.7c6,0.3,12,0.2,18,0  c3.3-0.3,6.6,1.2,8.6,3.9c5.1,6.3,10.6,12.3,16,18.5c-4.2,4.3-8.5,8.4-12.6,12.9c-0.6,0.7-1.4,1.3-2.2,1.8l6.7,1.8  c5.2-5.5,9.4-10.3,14.3-14.3c3.3-2.5,7.2-4,11.3-4.3c14.3-0.8,28.6-0.9,42.9-1c3.3,0,6.7,1.4,10.1,1.4c2.3,0,4.7-1.3,7.1-2  c-0.8-2.2-1-5.6-2.4-6.3c-1.8-0.8-4.7,0.4-6.9,1.1c-2.3,0.7-4.2,2.6-6.3,2.7c-14.5,0.5-29,0.7-43.5,1c-1.6-0.1-3.2-0.3-4.8-0.7  l20.2-17l-0.9-1.1c-1.6,1-3.3,1.9-4.8,3c-9,6.5-18,13.1-27,19.6c-5.9-7.5-11.9-14.9-18.2-22.8c13.2-6.2,25.5-12.2,38-18  c7-3.3,14.1-2.5,20.5,1.4c8.7,5.3,18,3.4,27.2,3.2c1.1,0,2.1-1,3.2-1.7c-1.8,0-3.5-0.1-5.2,0c-9,0.2-17.8,0.1-26-4.8  c-6.7-4-14.2-3.1-21.2,0c-8.7,3.9-17.6,7.3-25.7,12.2c-13.9,8.5-29,6.1-44.8,7c7.8-14,14.7-27.2,22.4-40c1.7-2.7,3.4-5.3,5.4-7.9  l-0.1-0.1c0,0,0,0,0,0L557.9,339.7z" style="fill: #1a1617; fill-opacity: 1;"></path><path class="st3" d="M629.1,264.2c0.5,0.9,0.6,2,0.3,3c-6.2,12.2-12.2,24.4-18.8,36.3c-4.3,7.8-12.4,10.6-20,14  c5.8-6.3,10.2-13,11.2-21.8c1-8.8,2.9-17.3,4.4-26c0.1-1.5,0.1-3,0-4.5c-1.5,1.2-2.6,2.9-3,4.9c-1.5,8.3-3,16.6-4.1,25  c-1.5,11.8-9.4,18.7-18,25.8c0.4-14.6,0.8-28.5,1.3-42.5c0.2-1.7,0.9-3.3,2-4.6c2.5-2.8,3.1-5.9,0.5-8.4c-1.3-1.2-4.8-1.9-6.3-1  c-3.2,1.9-3,5.1-1.1,8.3c0.9,1.3,1.4,2.9,1.6,4.4c0.1,10,0,20-0.1,30c-0.1,9.6-3.2,16.9-11.4,23.3c-3.5,2.8-6.8,5.8-9.8,9.2l0.1,0.1  l4.9,6.1c0,0,0,0,0,0c11.8-15.2,27.7-25.1,47-29.6c7.8-1.8,16.2-1.2,24.3-1.9c6.3-0.5,12.5-1.4,18.8-2.1c-0.1-0.6-0.2-1.1-0.2-1.7  l-42.2,2.6l-0.5-1.2c2.3-1.7,4.7-3.5,7-5.2c6.2-4.5,12.6-8.6,18.5-13.4c5.6-4.6,12.3-8,16.6-14.2c1.9-2.7,3.1-5.7,0.7-8.1  c-1.8-1.5-4.1-2.2-6.4-1.9c-3.3,0.5-5,3.3-4.4,6.7c0.4,2.2,1.5,4.2,2.3,6.7c-9.3,7.6-17.8,16.6-29.8,21.8  c6.9-14.6,13.5-28.3,19.8-42.2c0.9-2,0.3-5.1-0.7-7.3c-0.3-0.8-5.2-0.8-5.5-0.1c-0.9,2.2-0.8,4.8-0.8,7.3  C627.4,262.6,628.7,263.3,629.1,264.2z" style="fill: #1a161a; fill-opacity: 1;"></path><path class="st2" d="M671.1,437.5c-2.1-0.8-5-0.2-7.5,0.4c-2,0.5-3.8,2.4-5.8,2.5c-20,0.4-39.9,1-59.9,0.6c-6.9-0.1-13.8-2.5-21.7-4  c0.6-0.6,1.2-1.3,1.8-1.9l-6.7-1.8c-1.8,0.9-3.9,1.2-5.9,0.7c-6.4-1.1-12.8-2.4-19.2-2.6c-18.6-0.6-37.3-0.8-56-1.1  c-2.1,0-4.2,0-6.9,0c0.8-2.7,1.2-4.4,1.8-6.1c5.7-16.2,15-29.9,27.3-41.8c5.6-5.5,10.1-12.3,14.4-18.9  c10.5-15.8,20.6-31.8,30.7-47.8c1.6-2.4,2.6-5.2,2.8-8.2c0.2-11.7-0.3-23.3,0-35c0.2-5.5,0.6-11.4,2.6-16.5  c3.5-9.1,8.2-17.8,12.5-26.6c8.9-10.5,13.3-22.2,8.9-36.2c-0.3,2.6-1.4,5.4-0.8,7.7c2.1,8.6-2.1,15-6.4,21.5  c-1.2,1.8-2.1,3.7-3.1,5.6c-4.2,7.9-8.1,16-12.6,23.7c-3.4,5.7-4.4,11.7-4.3,18.1c0.2,10-0.2,20,0.2,30c0.3,5-1.8,9.9-5.5,13.3  c-12.3,12.1-22,26.1-30.6,41.1c-4.1,7.6-9.3,14.5-15.3,20.7c-14.5,14.4-25.7,30.6-31,50.4c-1,3.7-3,4.9-6.8,4.9  c-8.6,0.2-17.6-0.5-25.8,1.5c-25.3,6.4-42.2,23-52.5,46.6c-0.9,2.2-1.4,4.5-1.4,6.8c-0.2,21.7-0.4,43.5-0.6,65.2l1.8-1.4l8.7-6.7  l0,0c0-9.7,0.1-19.3,0.1-29c0-8.1-0.5-16.3,0.4-24.4c1.5-14.2,10.8-24,20.8-33c6.9-6.1,14.9-10.9,23.5-14  c-9.1,8.3-17.2,15.6-25.1,23c-3,2.9-5.9,5.9-8.5,9.1c-4,4.7-6.2,10.8-6.2,17c0,15.8,0,31.6-0.1,47.4l10.3-8c0-13,0-26.1,0.2-39.1  c0.1-3.8,1.7-8.5,4.4-11c13-12.4,26.4-24.4,40.1-36c3.1-2.6,8.2-4,12.4-4c27.3,0,54.6,0.2,81.9,1c15.6,0.5,30.6,4.1,44.1,12.7  c6.3,4,12.6,8,19,11.9c1.9,1.1,3.9,1.8,6,2.1c1.3,0.1,2.5-0.5,3.2-1.5c0.3-1.2,0-2.5-0.9-3.5c-1.4-1.4-3-2.7-4.7-3.7  c-7.3-4.8-14.7-9.5-22.1-14.2c1.8-1.3,3.9-2,6.1-2c18.3-0.1,36.7-0.1,55,0.1c2.2,0.2,4.4,0.8,6.4,1.9c2.9,1.4,5.9,1.8,7.3-1.4  C672.7,442.1,672.2,438,671.1,437.5z" style="fill: #28394b; fill-opacity: 1;"></path><path class="st0" d="M184.7,433.8c-5.3-5.2-10.5-10.6-15.7-15.8c5-6.3,9.5-12.5,14.5-18.2c1.9-1.9,4.4-3.1,7.1-3.4  c5.6-0.5,11.4,0.3,17-0.2c12.4-1.1,23.3,2.5,33.4,9.3c1.6,1.1,3.7,1.5,5.5,2.2l0.6-1.1c-1.7-1.5-3.5-2.8-5.4-4.1  c-11.3-6.3-18.5-15.6-23.4-27.8c-7.3-18.6-18.6-34.8-34.9-47.2c-2.3-1.8-4.5-5.2-4.8-8c-1.1-13.8-1.6-27.5-2.1-41.3  c0-1.5,1.5-3.4,2.8-4.4c2.9-2.2,4-4.9,1.8-7.6c-1.2-1.5-4.3-2.8-6-2.3c-3.4,1-4.7,3.9-3.3,7.6c0.6,1.5,1,3.1,1.1,4.8  c0.4,10.7,0.6,21.3,1,32c0.2,4.7,0.7,9.3,1.2,15.5c-4-3.8-7.1-6.3-9.8-9.3c-6.6-7.3-12.2-15-13.1-25.6c-0.7-7.3-3.3-14.5-4.8-21.8  c-0.3-1.9-0.2-3.9,0.5-5.8c1.2-3.3,1.6-6.6-1.9-8.2c-2.1-0.6-4.3-0.2-6,1.2c-2.6,2.9-1,5.8,1.5,8.3c1.5,1.5,3.2,3.1,3.8,4.9  c1.7,4.5,2.9,9.2,3.6,14c1.7,13.7,3.4,27.2,15.4,36.7c-3.1-0.9-6.1-2-9-3.4c-7-3-12.4-7.4-15.7-14.5c-4.5-9.8-9.3-19.5-14-29.2  c-0.8-1.6-1.9-3.1-2.9-4.7l-1.8,0.9l16.5,36.1l-1.2,1l-28.1-21.8l1.5-0.8c0.3-2.8,1.2-5.8,0.6-8.5c-0.4-1.8-2.7-3.8-4.6-4.3  c-1.6-0.4-4.7,0.6-5.5,1.9c-1.1,1.9-1.5,5.1-0.5,7c1.6,3,3.8,5.6,6.5,7.5c10.6,7.9,21.5,15.5,32.3,23.3c1.3,1.1,2.5,2.2,3.7,3.4  c-5.2,0-10,0.3-14.8-0.1c-9.7-0.8-19.3-1.8-29-2.8c2.1,1.4,4.2,3.4,6.5,3.8c5.4,0.8,10.9,1.2,16.4,1.2c14.5,0.3,28.7,1.8,41.7,9.3  c9.5,5.5,18.7,11.2,25.9,19.9c10,12,17.3,25.6,24,39.5c1.7,3.5,3.4,6.9,5.1,10.2c-7.2,0-14,0.5-20.8-0.2c-6-0.6-12-2-17.6-4.2  c-10-4.1-19.7-9-29.4-13.7c-8.5-4.2-17-4.2-25.4,0c-6.6,3.3-13.9,4.8-21.2,4.2c-2.8-0.2-5.5,0-8.3,0c0.9,0.6,1.8,1.4,2.8,1.6  c9,1,17.7,1.6,26.4-2.5c4.8-2.3,11.3-4.8,15.6-3.3c14.8,5.1,29,12,44.2,18.6c-5.8,7-10.7,12.6-15.2,18.5c-2.7,3.6-5.2,3.1-8.3,0.9  c-6.9-5-13.8-9.9-20.8-14.7c-1.3-0.8-2.6-1.5-4-2.1l-1,1.4l19,15c-13.3,0-26.5,0.1-39.6-0.1c-2.1,0-4.2-2-6.4-2.7  c-2.2-0.7-4.9-1.7-7.1-1.3c-0.9,0.2-2.1,4.9-1.3,5.8c1.4,1.6,4.3,2.3,6.6,2.4c3.2,0.1,6.5-1.2,9.8-1.2c10.8,0.1,21.6,0.9,32.5,0.8  c14.3-0.1,21,10.8,29.5,19.6l-0.3,0.1l7.9-1.6C185.4,434.3,185,434.1,184.7,433.8z" style="fill: #1a1617; fill-opacity: 1;"></path><path class="st2" d="M193.1,297.6c0,1.5,0,3-0.1,4.5c0,0.4,0,0.8,0,1.3c0-0.4,0-0.8,0-1.2C193.1,300.6,193.1,299.1,193.1,297.6z" style="fill: #28394b; fill-opacity: 1;"></path><path class="st2" d="M193.4,278.6c0,1.8-0.1,3.6-0.3,5.5c-0.2,1.5-0.2,3-0.2,4.5c0-1.5,0.1-3,0.2-4.5  C193.3,282.3,193.4,280.4,193.4,278.6z" style="fill: #28394b; fill-opacity: 1;"></path><path class="st2" d="M159.1,444.4l-31,19.3L159.1,444.4C159.1,444.5,159.1,444.5,159.1,444.4z" style="fill: #28394b; fill-opacity: 1;"></path><path class="st2" d="M368.1,565.9l0.1-0.1c0.1-8.8,0.2-17.5,0.2-26.3c0-14.3-0.3-28.7,0-43c0.3-12.3-3.7-24.3-11.2-34  c-17-22.4-39.4-34.3-68.1-32.3c-5.1,0.4-7.5-1.4-8.7-6.3c-4.7-18.8-15.9-33.3-30-46.2c-5.1-4.6-10-10-13.3-16  c-10.1-18.4-22.5-35.4-36.8-50.8c-2.1-2.3-3.3-6.2-3.5-9.4c-0.7-12.6-0.8-25.2-1.2-37.9c0,0,0,0,0,0c0.3,12.6,0.5,25.3,1.2,37.9  c0.2,3.2,1.4,7.1,3.5,9.4c14.3,15.3,26.6,32.4,36.8,50.8c3.3,6,8.2,11.4,13.3,16c14.1,12.9,25.3,27.4,30,46.2  c1.2,4.9,3.7,6.7,8.7,6.3l0.9-0.1l-2.6,10.1c2.9,0,6.5,1,8.7,2.8c13.1,11.1,25.9,22.4,38.5,34c5.6,5.1,8,12,7.9,19.8  c-0.2,16.5-0.5,33,0.1,49.5c0.4,10.8-3.9,17.4-13.6,21.2c-11,4.2-20.2,12-26.2,22.1c-2.4,3.9-6.2,7.9-10.3,9.7  c-12.5,5.5-25.6,9.5-39.5,9.7c-44.8,0.5-89.6,0.8-134.5,1.2c-2.2,0-4.4,0-6.6,0c0.6,0.4,1.3,0.6,2,0.5c38.7,0.5,77.3,0.8,116,1.5  c11.8,0.2,23.5,2,35.3,2.5c15.1,0.6,30.5-1,40.8-13.3c10-12.1,21-22.1,35.2-28.5c0.4-0.2,0.9-0.5,1.2-0.8  c6.2-4.3,10.5-9.7,10.5-17.7c0-20.7,0-41.3-0.1-61.9c0-9.3-3.8-17.2-10.5-23.5c-7-6.7-14.3-13-21.5-19.5c-1.4-1.2-2.9-2.2-4.3-3.4  c-1.4-1.2-2.5-2.2-3.8-3.2l1-1.4c7.4,4.7,15.2,8.8,22,14.3c14,11.3,22.2,25.5,21.6,44.4c-0.7,20.5-0.1,41-0.1,61.5  c0,5.2-1.5,9.8-5.4,13.5c-2.8,2.6-5.4,5.4-8.3,8c-3.4,3-6.7,6-9.9,9.1L368.1,565.9C368.1,565.9,368.1,565.9,368.1,565.9z" style="fill: #28394b; fill-opacity: 1;"></path><path class="st2" d="M191.8,256.6c1.1,2.2,2.3,4.4,3.4,6.6c0,0,0,0,0,0v0c0,0,0,0,0,0C194.1,260.9,192.9,258.8,191.8,256.6  c-4.8-10-9.4-20.2-14.4-30.2c-4-8-8.4-15.8-12.6-23.7c0,0,0,0.1,0,0.1c4.2,7.9,8.6,15.6,12.5,23.6  C182.4,236.4,187,246.6,191.8,256.6z" style="fill: #28394b; fill-opacity: 1;"></path><path class="st2" d="M86.3,437.6c2.5-0.6,5.4,0,8.1,0.5c1.9,0.4,3.7,2.2,5.6,2.2c20.7,0.1,41.4,0.2,62-0.2c4.9-0.1,9.6-2,14.6-3.9  l9.5-1.9c0.5,0.1,1.1,0.1,1.6,0c24.1-4.3,48.4-4,72.7-4.1c3.4,0,6.8,0,11.2,0c0,0,0,0,0,0c-4.3,0-7.8,0-11.2,0  c-24.3,0.1-48.6-0.2-72.7,4.1c-0.5,0.1-1.1,0.1-1.6,0l-0.5,0.1l-7.9,1.6l-1.2,0.2c-5,1.9-9.8,3.8-14.6,3.9  c-20.6,0.5-41.3,0.3-62,0.2c-1.9,0-3.7-1.8-5.6-2.2C91.8,437.5,88.9,437,86.3,437.6c-0.5,0.1-1.1,2.3-1.1,4.2  C85.3,439.9,85.8,437.7,86.3,437.6z" style="fill: #28394b; fill-opacity: 1;"></path><path class="st1" d="M416.2,706.1c-2.6-0.2-5.1-0.9-7.5-2.1c-9.9-5.4-19.8-10.9-29.5-16.7c-4.1-2.5-8.8-5-11.2-8.8  c-7.3-11.7-13.6-24-20.2-36.1c-1.9-3.4-1-6.6,1.2-9.8c4.8-6.8,9.7-13.6,13.8-20.8c2.3-4.1,4.3-8.9,4.5-13.5  c0.4-10.8,0.6-21.5,0.7-32.3c0,0,0-0.1,0-0.1l-34.3,26.6l-0.7,0.5c-8.5,8.3-16.1,17.3-21,28.5c-2.1,4.9-6.5,6.8-11.8,6.8  c-11.7-0.1-23.4,0.2-35-0.3c-10.4-0.5-19.4,2.2-27.3,8.9c-6.4,5.7-14.7,8.8-23.3,8.7c-1.8-0.1-3.5-0.8-4.8-2.1  c-3.3-3.5-6.8-4.2-10-1.2c-2.8,2.6-3,5.5-0.6,8.4c2.6,3.3,6.4,3.1,10.1,0.1c1.5-1.4,3.5-2.2,5.5-2.5c10.3-0.4,20-2.5,29-8  s19.1-2.9,30.4-3c-2.7,3.9-3.9,7-6.2,8.9c-9.4,8.1-19,16.1-28.8,23.8c-2.2,1.6-4.7,2.6-7.3,3c-3.9,0.7-6.1,2.8-6.3,6.6  c-0.1,3.3,1.7,6,5.2,6.3c4.2,0.3,6.4-2.8,6.3-6.2c-0.1-3.8,1.9-5.2,4.2-7.1c9.8-7.7,20.7-14.4,29-23.5c7.5-8.2,14.7-12.6,25.9-11.2  c11.6,1.5,20.5-3.7,25.8-14.1c7.9-15.5,21.8-25.4,33.5-37.3c0.1-0.1,0.6,0,1.4,0.1c0.3,7,0,14-3.7,20.2c-8.1,13.4-17,26.2-28.1,37.5  c-8.6,8.8-16.3,18.3-24.2,27.7c-7.1,8.4-12.3,18.6-24,22.3c-2.6,0.9-4.1,3.7-3.2,6.3c0.1,0.4,0.3,0.8,0.6,1.2c1.1,1.9,4,3.7,6.1,3.7  c3.5-0.1,4.6-3.3,4.7-6.6c0.1-1.4,0-3.3,0.8-4c7-5.8,14.2-11.3,22-17.5c2.9,15.4,2.2,29.7-2.7,43.8c-1.8-0.3-3.1-0.9-4.4-0.7  c-3.6,0.5-6.1,3-5.9,6.3c0.5,2.6,2,4.8,4.3,6.2c2.8,1.3,5.7-0.4,6.6-3.6c2.3-7.4,4.7-14.9,6.5-22.5c1.2-5.1,1.4-10.4,2.2-16.7  c11.2,13.7,20.9,27.3,34,37.8c-3.9-5.9-8.2-11.6-12.8-17c-9.6-11.5-19.7-22.7-21-38.9c-0.3-3.5,0.3-5.9,3.1-8.3  c5.8-5,11.3-10.3,17-15.5c1.1-0.9,2.3-1.7,3.5-2.5c5.2,10.1,9.7,20,15.3,29.2c3.9,6.2,9.2,11.8,14.5,16.9c2.7,2.5,4.2,4.9,4.3,8.4  c0.2,12.2,0.6,24.3,0.8,36.5c0.1,3.6,0.3,7-3.2,9.8c-2.9,2.4-2,7.1,1,9.2c3.2,2.2,6.3,1.8,8.8-1.2c2.5-3,1.8-6.7-1-9.3  c-1.4-1.2-2.3-2.9-2.5-4.7c-0.2-10.2-0.2-20.3,0-30.5c0.1-4.7,0.8-9.4,1.2-14.9c11,4.8,21.2,9.2,31.3,13.8c0.9,0.4,1.5,2,1.6,3.1  c0.4,4.1,2.4,6.9,6.5,6.8c3.9-0.1,6-3.1,6-6.8C423.1,707.9,420.2,706.4,416.2,706.1z" style="fill: #3F63C8; fill-opacity: 1;"></path><path class="st1" d="M493.5,125.3l-1.3-0.5c-2.6,4-4.9,8.3-8,11.9c-4.8,5.4-6,11.8-5.9,18.5c0.1,10.3,0.5,20.6,0.8,30.9  c0.1,2.5,0.3,4.6-3.7,4.9c-4.7,0.4-6.7,4.9-4.1,8.9c1.5,2.3,4.5,3.8,7.6,6.2c0,10-0.5,21.4,0.2,32.6c0.6,9.2-2.9,15.8-9.1,22.1  c-13.4,13.7-26.4,27.7-39.4,41.8c-2,2.2-4,5.3-4.1,8.1c-0.5,9.1-0.3,18.3-0.3,27.5c0.1,1,0.4,2,0.7,2.9l1.3-0.1c0-6.4,0-12.8,0-19.2  c0-7.9,1.7-14.7,7.7-20.7c13.5-13.4,26.4-27.2,39.3-41.2c2.7-2.9,5.7-6.8,5.9-10.4c0.8-17.4,0.8-34.9,0.8-52.3c0-13,0.1-26-0.8-38.9  c-0.6-9.2,1.7-16.9,7.7-23.8C491.1,131.9,492,128.4,493.5,125.3z" style="fill: #3F63C8; fill-opacity: 1;"></path><path class="st1" d="M224.5,271.4c0.4,2.2,1.7,4.3,1.7,6.4c0.2,10.3-0.1,20.7,0.1,31c0.1,2.5,0.7,5.6,2.3,7.4  c7.1,8.1,14.6,15.9,21.9,23.8c0.1,0.1,0.6-0.1,1.8-0.4c-0.9-1.6-1.4-3.2-2.4-4.4c-4.2-4.7-8.5-9.4-12.9-13.9  c-5.1-5.2-8.3-10.8-7.7-18.6c0.6-8.1,0-16.3,0.3-24.5c0.2-2,1-3.8,2.4-5.2c2.9-3,3.5-7.6,0.3-10.1c-2.8-2.1-2.8-4.5-2.8-7.4  c-0.1-31.8-0.2-63.7-0.3-95.5c0-3.6-0.6-7.2-0.9-10.8H227c-0.2,2.5-0.4,5.1-0.4,7.6c-0.1,32.7-0.2,65.3-0.4,98c0,3.3-1.6,6.6-2,9.9  C223.9,267,224.1,269.2,224.5,271.4z" style="fill: #3F63C8; fill-opacity: 1;"></path><path class="st1" d="M558.4,455.3c3,1.8,5.9,3.8,8.6,5.9c15.5,13.6,35,23.9,39.5,46.9c0.2,1.3,3.3,2.8,5,2.7c1.5,0,3.8-1.9,4.1-3.4  c0.3-2-0.4-4.1-1.8-5.6c-1.4-1.2-3.9-1.2-6.2-1.8c-2.7-4.5-4.8-9.7-8.3-13.4c-8.7-9-17.8-17.5-27.3-25.5c-6-5.1-13.1-9.1-19.9-13  c-1.3-0.7-4,0.9-6,1.5c0.7,1.7,1.6,3.3,2.6,4.8c2.4,2.9,5.6,5.2,7.6,8.3c5.9,8.8,11.5,17.8,16.9,27c2.9,4.6,5.3,9.6,7.2,14.7  c1.7,5,4,10.1,1.3,15.8c-1.1,2.4-0.7,6.2,3.2,6.6c1.9,0.2,5.5-1.1,5.7-2.2c0.5-2.2-0.7-4.9-1.7-7.1c-0.7-1.5-3.3-2.3-3.5-3.7  c-2-14.2-9.9-25.5-17.6-37c-4.8-7.2-8.9-14.9-13.2-22.4C556,454.3,557.3,454.6,558.4,455.3z" style="fill: #3F63C8; fill-opacity: 1;"></path><path class="st1" d="M197.2,451c-9.9,8.6-20.2,16.9-29.4,26.2c-6.1,6.2-10.5,14-15.8,21c-1.1,1.1-2.4,2-3.9,2.5  c-3.1,1.2-5.1,3.3-3.8,6.4c1,2,2.9,3.5,5.2,4c3.4,0.3,5.2-2.7,4.7-5.7c-1-6.5,2-11.7,6-15.8c10.4-10.8,21.4-21,32.3-31.2  c2.1-2,5.2-2.9,9-4.9c-0.3,1.2-0.7,2.3-1.1,3.5c-7.8,13.7-15.6,27.5-23.6,41.1c-0.8,1.1-2,2-3.3,2.5c-3.5,1.5-4.9,4.4-3.5,7.6  c0.6,1.5,3.7,3,5.4,2.8c3.7-0.5,4-3.7,3.9-7c-0.1-2.2-0.2-4.8,0.8-6.5c8.2-14,16.7-27.9,25-41.9c1-1.6,1.1-3.8,1.6-5.7  c-2.1-0.3-4.2-0.5-6.4-0.5C199.2,449.3,198,450.2,197.2,451z" style="fill: #3F63C8; fill-opacity: 1;"></path><path class="st1" d="M517.8,317.2c-9.8,10.4-20.2,20.5-21.6,36.3c1-2,2-4,3.1-6c2.8-4.9,5.1-10.2,8.5-14.5  c5.3-6.6,11.4-12.6,17.2-18.7c4.9-5.1,7.6-10.8,7.5-18.3c-0.3-24.6,0-49.3,0.1-73.9c0-22.1,0-44.2,0-66.3h-2c0,1.7,0,3.5,0,5.2  c-0.4,44.6-1,89.2-1.1,133.9c0,7.7-2.5,13.5-7.9,18.4C520.3,314.6,519,315.9,517.8,317.2z" style="fill: #3F63C8; fill-opacity: 1;"></path><path class="st1" d="M521.9,331.5c-7.6,6.5-10.5,16-13.7,25.2c0.8-0.2,1.5-0.8,1.9-1.6c4.3-13.4,13.9-22.8,23.8-32.1  c5.2-5,7.2-11.5,7.1-18.6c-0.2-13.6-0.5-27.3-0.6-40.9c-0.1-30,0-59.9,0-89.9h-0.7c-0.4,7.6-1,15.2-1.1,22.8  c-0.5,32.1-2,64.3-0.8,96.3C538.4,309.1,534.1,321.1,521.9,331.5z" style="fill: #3F63C8; fill-opacity: 1;"></path><path class="st1" d="M408.4,170.2h1.4c0.4-8.7,1.1-17.4,1.2-26.2c0.1-11.1-0.3-22.2-0.5-33.3c-0.1-6.1-1.7-12.5,3-17.7  c5.8-6.4,11.8-12.7,17.6-19c1.9-2,3.6-2.9,6.5-1.6c1.8,0.7,3.8,0.6,5.5-0.3c3.2-2.4,4.6-6.2,2.5-9.7c-1.3-2.2-4.5-4.6-6.8-4.5  c-4.2,0.1-5.6,3.9-6.1,7.8c-0.2,1.7-0.9,3.3-2,4.6c-6.3,6.8-13,13.3-19.2,20.3c-1.9,2.2-3,5-3.2,7.9c-0.4,8.6,0,17.2,0,25.8  C408.4,139.6,408.4,154.9,408.4,170.2z" style="fill: #3F63C8; fill-opacity: 1;"></path><path class="st1" d="M204.3,299.8c-0.3,5.7,1.9,11.3,6,15.2c11.3,11.4,24.4,21.4,30,37.5l1.6-0.8c-0.5-1.5-1-3-1.5-4.5  c-3.6-10.2-10.6-18-18.1-25.4c-3.9-3.7-6-8.9-5.9-14.3c0-12.1-0.2-24.3-0.2-36.5c0-6.9,0-13.7,0-20.5h-1.8v64.2  c-5.2-3.9-7-7.1-7.1-12.8c-0.1-12.3-0.1-24.6-0.1-36.9v-5.3l-1.1,0.1V270h-0.9v-9.2C204.4,273.8,204.6,286.8,204.3,299.8z" style="fill: #3F63C8; fill-opacity: 1;"></path><path class="st1" d="M430.3,188.9c-1,1.2-2,2.6-2.8,4l1.3,1c3.9-3.7,7.7-7.6,11.7-11.1c8.2-7.3,16.6-14.2,24.7-21.7  c2-2,3.1-4.6,3.4-7.3c0.3-8.8,0-17.6,0-26.4c0-7,0-13.9,0-20.9l-1.2,0.1c-0.3,3.3-0.7,6.6-0.8,9.9c-0.2,10.8-0.1,21.7-0.2,32.5  c-0.1,5.4-1.4,10.1-7,12.6c-1.9,1-3.7,2.3-5.2,3.8C446.1,173.1,438.2,181,430.3,188.9z" style="fill: #3F63C8; fill-opacity: 1;"></path><path class="st1" d="M548.2,300.5c0.3-14.1,0.7-28.3,0.6-42.4c-0.1-19.8-0.7-39.6-1-59.5h-2.3c0,28.4,0.1,56.8-0.1,85.2  c-0.1,9.9-0.9,19.7-1.3,29.2C547.6,310.1,548.2,305.3,548.2,300.5z" style="fill: #3F63C8; fill-opacity: 1;"></path><path class="st1" d="M551.5,374.7c11.3,4.8,11.5,5,22.4,0.8c12.7-5,25.3-10.2,37.7-15.8c9.8-4.4,18.9-4.1,28,1.6  c5.1,3.2,10.6,5.8,16,8.7l0.8-1.3c-5.4-3.4-10.9-6.7-16.2-10.2s-11-5.1-17.1-4.2c-4.9,0.8-9.7,2-14.3,3.8  c-14.6,5.6-29,11.7-43.5,17.4c-1.7,0.5-3.6,0.6-5.3,0.1c-2.8-0.5-5.4-1.5-8.1-2.3C551.8,373.8,551.7,374.3,551.5,374.7z" style="fill: #3F63C8; fill-opacity: 1;"></path><path class="st1" d="M96.8,370.1c4.3-2.6,8.6-5,12.8-7.7c10.5-6.7,21.2-7.5,32.7-2.1c9.6,4.6,19.4,8.8,29.3,12.4  c9.1,3.3,18.7,5.6,28,8.4c0.2-0.5,0.3-1,0.5-1.5c-0.8-0.6-1.6-1.1-2.5-1.4c-4.6-1.3-9.4-2-13.8-3.8c-13.9-5.5-27.8-11.1-41.4-17.1  C126.2,350.1,109.4,356.1,96.8,370.1z" style="fill: #3F63C8; fill-opacity: 1;"></path><path class="st1" d="M377.4,40.3C377.4,40.3,377.4,40.3,377.4,40.3c0,0.6,0,1.1,0,1.7c0-0.6,0.1-1.1,0.1-1.7L377.4,40.3  c3.5-1.3,4.2,0.7,4.2,3.4c0,4.3-0.4,8.7,0,13c0.3,3.7,1.4,7.4,2.2,11.1V102h0.1V68.2c0-0.1-0.1-0.3-0.1-0.4c0-6.2,0.4-12.4-0.1-18.5  c-0.4-4.5-1.1-8.5,2.1-12.6c1.2-1.6,1.2-5.6,0-7.2c-1.8-2-4.4-3.2-7.1-3.1c-2,0.2-4.6,2.6-5.6,4.7C371.1,35.3,374.1,38,377.4,40.3z" style="fill: #3F63C8; fill-opacity: 1;"></path><path class="st1" d="M573.8,256.8c-4.6,6.6-8.5,13.5-9.1,21.7c-1,1.8-2.9,3.5-3,5.3c-0.4,6.3-0.1,12.7-0.1,19.1h0.8v-17.5h0.5  l0.9,3.7c0.5-4.1,0.8-7.2,1.2-10.3c1.2-1.9,2.5-3.9,3.6-5.8c4.4-7.6,8.4-15.4,13.1-22.7c9.2-14.6,18.8-29,28.3-43.4  c1.1,0,2.3-0.2,3.4-0.5c3.3-1.3,4.7-4.2,3.4-7.1c-0.8-1.7-3.6-2.6-5.5-3.8c-1.4,2.4-2.6,4.8-3.6,7.3c-0.3,0.9,1,2.3,1.6,3.4  c-1,1.3-2.2,2.5-3.1,3.8C595.4,225.6,584.6,241.2,573.8,256.8z" style="fill: #3F63C8; fill-opacity: 1;"></path><path class="st1" d="M448.3,101.7c1.1,1,1.8,2.3,2,3.7c0.2,12.8,0.3,25.6,0.3,38.4c0,3.8,0,7.5,0,11.3l1.9-0.1  c2.7-7.2-0.9-14.5-0.1-21.7v-0.8c0.3-5.1,0.5-10.3,1-15.4c0.5-5.8-1.5-11.8,2.5-17.3c1-1.3-0.6-5.2-2.1-7.2  c-0.6-0.8-4.7-0.2-5.9,1.1C445.5,96,445.8,99,448.3,101.7z" style="fill: #3F63C8; fill-opacity: 1;"></path><path class="st1" d="M430,110.3c1.9-3.2,2.5-6.7-0.6-8.9c-1.5-1.1-5.2-0.7-7,0.5c-3.3,2.2-2.4,5.3,0,8.1c1,1.2,2.2,2.7,2.2,4  c0.2,10.3,0.1,20.6,0.1,30.9c0,3.9,0,7.8,0,11.6l2.1,0.1c0.2-2.4,0.7-4.7,0.7-7c0.1-11-0.1-21.9,0.1-32.9  C427.7,114.6,428.9,112.3,430,110.3z" style="fill: #3F63C8; fill-opacity: 1;"></path><path class="st1" d="M127.7,336.9l68.1,28.7C187.4,357.9,133.7,336.2,127.7,336.9z" style="fill: #3F63C8; fill-opacity: 1;"></path><path class="st1" d="M238.6,124.2c0.4,11.3,0.6,22.6,0.9,33.9c0,1.5,0,3.1,0,4.6l1.9-0.1c0-1.8,0-3.6,0-5.3c0-10.8-0.1-21.6,0-32.5  c0.1-1.9,0.8-3.7,2-5.1c2.4-2.9,2.9-6,0.3-8.4c-1.3-1.2-4.4-0.5-6.6-0.7c-0.3,2.7-0.4,5.5-0.3,8.2  C236.9,120.6,238.5,122.3,238.6,124.2z" style="fill: #3F63C8; fill-opacity: 1;"></path><path class="st1" d="M557.5,184c3.3,0,6.7-3.4,6.7-6.8c-0.1-4.2-3.4-7.6-7.7-7.7c-3.7,0-6,2.6-6,7C550.6,181,553.2,183.9,557.5,184z  " style="fill: #3F63C8; fill-opacity: 1;"></path><path class="st1" d="M217.2,134.6c4.2,0.1,6.7-2.2,6.9-6.2c0.2-4.3-2.4-7.3-6.3-7.5c-3.8-0.3-7.1,2.6-7.4,6.3c0,0.2,0,0.4,0,0.7  C210.3,132.4,212.5,134.5,217.2,134.6z" style="fill: #3F63C8; fill-opacity: 1;"></path><path class="st1" d="M340.3,150.8V98.3l-1.8-0.1c-0.4,0.6-0.6,1.3-0.8,2.1c-0.1,14.5-0.2,29,0,43.5  C337.8,146,339.4,148.3,340.3,150.8z" style="fill: #3F63C8; fill-opacity: 1;"></path><path class="st1" d="M114.2,239.1c3.9-0.1,6.1-2.8,6.1-7.4c0-4.2-2.3-6.9-6-6.8c-3.8,0.1-6.9,3.2-6.8,7.1  C107.4,235.8,110.7,239.2,114.2,239.1z" style="fill: #3F63C8; fill-opacity: 1;"></path><path class="st1" d="M194.4,188.9c3.3,0.4,6.8-3,6.9-6.2c0.1-5-1.8-7.4-5.9-7.5c-4.4-0.1-7,2.3-7,6.5S190.3,188.4,194.4,188.9z" style="fill: #3F63C8; fill-opacity: 1;"></path><path class="st1" d="M523.2,255.1c-2.2,16.9-0.2,33.8,0.3,50.8C526.4,289,523.7,272,523.2,255.1z" style="fill: #3F63C8; fill-opacity: 1;"></path><path class="st1" d="M638.9,239.1c3.3-0.1,6.2-3.4,6.3-7.1c0.2-3.7-2.7-6.8-6.3-7c-3.6-0.1-6.5,3.1-6.4,7.3  C632.5,236,635.5,239.2,638.9,239.1z" style="fill: #3F63C8; fill-opacity: 1;"></path><path class="st1" d="M535.9,134.2c3.8-0.1,6.3-2.8,6.2-6.8c-0.1-3.6-3-6.6-6.7-6.6c-3.6,0.1-6.2,3.1-6.2,7  C529.4,131.7,532,134.3,535.9,134.2z" style="fill: #3F63C8; fill-opacity: 1;"></path><path class="st1" d="M174.3,170.5c0.7-2,1.7-3.8,3.2-5.4c2.5-2.7,3.6-5.7,0.9-8.3c-1.3-1.3-4.9-1.9-6.4-1c-3.2,1.9-2.5,5.1-1,8.3  c1,2.1,1.3,4.4,0.9,6.7c-0.9,4.7-2.6,9.2-3.8,13.9c-0.3,1.4-0.4,2.7-0.4,4.1l1.4,0.2C170.7,182.9,172.3,176.6,174.3,170.5z" style="fill: #3F63C8; fill-opacity: 1;"></path><path class="st1" d="M73.3,347.4c-0.2,0-0.4,0-0.5,0c-3.4,0.1-6.3,3.4-6.3,7c0.2,3.6,3,6.5,6.6,6.8c3.7,0.1,6.4-3,6.4-7.3  C79.5,350.4,76.8,347.5,73.3,347.4z" style="fill: #3F63C8; fill-opacity: 1;"></path><path class="st1" d="M659.4,460.5c-3.4-0.4-6.7,2.9-6.8,6.4c0,3.8,2.9,6.9,6.7,7.3c3.4,0.1,6-2.9,6.1-8.3  C665.3,463.1,663.2,461,659.4,460.5z" style="fill: #3F63C8; fill-opacity: 1;"></path><path class="st1" d="M681.4,333.6c0.4-2.8-0.3-5.7-1.9-8c-0.9-1.3-4.6-1.5-6.5-0.8c-3.3,1.3-4.2,4.5-3.2,8c0.4,1.2,1,2.4,1.6,3.6  l0,0l-1,0h-31.7c4.8,0.8,9.6,1.1,14.4,0.8c5.8-0.2,11.5-0.5,17.3-0.8h1l0,0c0,0,0,0,0,0v0v0c0.9,0.3,1.9,0.6,2.8,0.8  C677.6,337.8,680.8,336.9,681.4,333.6z" style="fill: #3F63C8; fill-opacity: 1;"></path><path class="st1" d="M72.3,385.2c-0.2,0-0.4,0-0.6,0c-4.2,0.1-6,3-6,6.5s2,6.3,6.1,6.5c4.1,0.2,6.4-2.4,6.4-6.5  C78.4,388.3,75.7,385.4,72.3,385.2z" style="fill: #3F63C8; fill-opacity: 1;"></path><path class="st1" d="M682.3,384.8c-3.3-0.1-6.9,3.2-6.8,6.6c0,3.8,1.7,6.4,5.7,6.8c3.3,0.3,6.6-2.8,6.9-6.4  C688.3,388.4,685.4,384.8,682.3,384.8z" style="fill: #3F63C8; fill-opacity: 1;"></path><path class="st1" d="M174.7,260.4c0.4,0.6,1.2,1,1.8,1.5c-9-17.5-18.6-34.4-28.4-51.2c-0.6-1-1.8-1.5-2.8-2.3  c0.1,0.9,0.4,1.8,0.8,2.7C155.7,227.6,165.2,244,174.7,260.4z" style="fill: #3F63C8; fill-opacity: 1;"></path><path class="st1" d="M578.7,171.4c1.3,5,2,10,3,15.1h1.7c-0.8-4.7-1.4-9.5-2.4-14.2c-0.6-3.1-1.3-5.6,1-8.8c1.2-1.6-0.3-5.4-1.3-7.9  c-0.2-0.5-5.6,0.1-5.7,0.8c-0.5,2.7-0.3,5.4,0.4,8.1C576,166.9,578.1,168.9,578.7,171.4z" style="fill: #3F63C8; fill-opacity: 1;"></path><path class="st1" d="M608.8,340.9l-54.1,24.8l0.8,1.7l54.1-24.6C609.3,342.1,609.1,341.5,608.8,340.9z" style="fill: #3F63C8; fill-opacity: 1;"></path><path class="st1" d="M554.4,229.2v24.9h1.7c0.4-16.7,2.1-33.3,0.2-50l-1.9,0.2V229.2z" style="fill: #3F63C8; fill-opacity: 1;"></path><path class="st1" d="M627.6,384.5c-3.4-0.1-7.2,3.3-7.1,6.4c0.2,3.8,2.7,5.8,6.1,6c3.4,0.2,6.3-1.3,5.7-5.3  C632.3,386.6,630.9,384.5,627.6,384.5z" style="fill: #3F63C8; fill-opacity: 1;"></path><path class="st1" d="M133,390.9c0.2-3.3-3.4-6.6-6.9-6.4c-4.2,0.3-4.7,3.4-4.9,8.2c-0.2,2.1,1.3,4,4.9,3.8  C129.7,396.3,132.7,395,133,390.9z" style="fill: #3F63C8; fill-opacity: 1;"></path><path class="st1" d="M634.1,459.2c-0.4-0.7-4.3-0.8-5.2,0.2c-1.4,1.7-1.9,3.9-1.5,6c0.4,1.2,3.3,2.4,5.2,2.3c3.2,0,6.4-1,9.6-1.4  c2.7-0.3,5.5-0.3,8.2-0.4c0-0.4,0.1-0.8,0.1-1.3c-1-0.1-1.9-0.1-2.8-0.3C642.9,463.3,637.2,465.1,634.1,459.2z" style="fill: #3F63C8; fill-opacity: 1;"></path><polygon class="st1" points="258.4,155.5 258.3,155.3 258.3,155.4 " style="fill: #3F63C8; fill-opacity: 1;"></polygon><path class="st1" d="M261.3,193.3c0.1,1.3,1,2.7,1.5,4l1.3-0.3c0.2-1.7,0.3-3.5,0.2-5.2c-0.5-6-1.1-11.9-1.6-17.9  c-0.5-5.4-0.7-10.9-1.4-16.2c-0.1-0.9-1.9-1.5-3-2.2c0.7,3,1.8,6,1.9,9C260.8,174.1,260.9,183.7,261.3,193.3z" style="fill: #3F63C8; fill-opacity: 1;"></path><path class="st2" d="M453.4,706.3C453.4,706.3,453.4,706.3,453.4,706.3l-0.2-0.2C453.2,706.2,453.2,706.3,453.4,706.3L453.4,706.3  C453.4,706.3,453.4,706.3,453.4,706.3C453.4,706.3,453.4,706.3,453.4,706.3z" style="fill: #28394b; fill-opacity: 1;"></path><path class="st1" d="M453.4,706.3C453.4,706.3,453.4,706.3,453.4,706.3C453.4,706.3,453.4,706.3,453.4,706.3  c-0.5,1.9-0.8,3.8-0.9,5.7c0.1,3.6,2.3,5.5,5.9,5.2c3.6-0.3,5.1-2.7,4.9-6.2C463,706.1,459.2,704.3,453.4,706.3z" style="fill: #3F63C8; fill-opacity: 1;"></path><path class="st1" d="M195.5,263.7C195.5,263.7,195.5,263.7,195.5,263.7C195.5,263.7,195.5,263.7,195.5,263.7  C195.5,263.7,195.5,263.7,195.5,263.7l1.8,2.1v-44h-2.1v41.3v0C195.3,263.4,195.4,263.5,195.5,263.7z" style="fill: #3F63C8; fill-opacity: 1;"></path><path class="st1" d="M295.7,119c1.1,0.4,3.7-2.9,5.6-4.6c-1.1-4.4-2.6-7.6-6-6.9c-2.2,0.5-5.7,4-5.4,5.5  C290.4,115.5,293.3,118.1,295.7,119z" style="fill: #3F63C8; fill-opacity: 1;"></path><polygon class="st1" points="95.3,379.3 95.5,379.3 95.4,379.2 " style="fill: #3F63C8; fill-opacity: 1;"></polygon><path class="st1" d="M95.3,379.3c0-1.5,0.4-3.1-0.1-4.4c-0.7-1.6-2-4.1-3.2-4.2c-2.3-0.1-4.6,0.7-6.4,2.3c-1,1-0.7,4.2,0.2,5.7  C88.5,383,92,380.7,95.3,379.3z" style="fill: #3F63C8; fill-opacity: 1;"></path><path class="st1" d="M220.6,141.8c-2.1,0.1-4,2.7-7.2,5.1c2.9,2.8,4.5,5.5,6.4,5.7c3.4,0.4,5.9-1.8,6.2-5.6  C226.2,143.2,223.2,141.7,220.6,141.8z" style="fill: #3F63C8; fill-opacity: 1;"></path><path class="st1" d="M664.4,380.2c1.7-0.5,3.7-2.5,3.9-4.1c0.1-2-0.8-4-2.5-5.2c-1.4-0.8-5.1-0.6-5.7,0.4c-1.3,2.2-1.3,5.2-1.8,7.9  C660.4,379.7,662.6,380.7,664.4,380.2z" style="fill: #3F63C8; fill-opacity: 1;"></path><path class="st1" d="M658.2,379.3h0.2c0,0,0-0.1,0-0.1h-0.1L658.2,379.3z" style="fill: #3F63C8; fill-opacity: 1;"></path><path class="st1" d="M325.4,86.3c1.3,0.1,2.6,0,3.8-0.3c3.2-1.2,4.9-3.5,3.9-7c-0.9-3.1-3.1-4.7-6.4-3.9c-3.7,0.9-4.3,3.8-3.5,7  C323.5,83.6,324.6,84.9,325.4,86.3z" style="fill: #3F63C8; fill-opacity: 1;"></path><polygon class="st1" points="325.3,86.5 325.4,86.3 325.3,86.3 " style="fill: #3F63C8; fill-opacity: 1;"></polygon><path class="st1" d="M607.8,263.6c2.2-0.2,4.2-3,6.3-4.6v-2.3c-2-1.4-3.9-3.6-6.1-4c-3.3-0.7-4.5,1.9-4.6,5  C603.4,260.8,604.6,263.9,607.8,263.6z" style="fill: #3F63C8; fill-opacity: 1;"></path><path class="st1" d="M141,205.9c1.3,0.9,2.8,1.6,4.3,2.4c1-1.9,2.8-3.8,2.6-5.5c-0.3-2.4-1.9-4.8-3.5-6.7c-0.3-0.4-4,1.1-5,2.5  C137.7,201.1,138.3,204,141,205.9z" style="fill: #3F63C8; fill-opacity: 1;"></path><path class="st1" d="M145.3,208.3C145.3,208.3,145.3,208.3,145.3,208.3L145.3,208.3l0.1,0.2v0c0-0.1,0-0.1,0-0.2H145.3L145.3,208.3  L145.3,208.3z" style="fill: #3F63C8; fill-opacity: 1;"></path><path class="st1" d="M660,314.2c2.4-3.5,4.7-5.4,5-7.6c0.4-3.2-2-5.1-5.3-5.1c-2.5-0.2-4.7,1.8-4.9,4.3c0,0.4,0,0.8,0.1,1.3  C655.2,309.1,657.5,310.9,660,314.2z" style="fill: #3F63C8; fill-opacity: 1;"></path><path class="st1" d="M515.2,119.8c1.9-0.4,4.4-3.3,4.7-5.5c0.4-2.3-1.2-4.5-3.6-4.9c-0.6-0.1-1.2-0.1-1.8,0.1  c-2,0.4-3.6,2.8-6.7,5.4C511.3,117.3,513.6,120.1,515.2,119.8z" style="fill: #3F63C8; fill-opacity: 1;"></path><path class="st1" d="M90.7,311.1c2.6-0.1,5.1-1.2,7.6-1.9c0-1.1,0-2.3-0.1-3.4c-0.5-3.5-2.8-4.7-6-4.4c-3.2,0.3-4.1,2.7-3.7,5.4  C88.7,308.4,90,311.2,90.7,311.1z" style="fill: #3F63C8; fill-opacity: 1;"></path><polygon class="st1" points="98.4,309.2 98.3,309.2 98.3,309.3 98.6,309.3 " style="fill: #3F63C8; fill-opacity: 1;"></polygon><path class="st1" d="M533.2,152.6c1.4,0.4,3.8-2.3,5.8-3.6l0.1-2.2c-2-1.5-3.8-3.6-6-4.2c-1.9-0.7-4,0.4-4.7,2.3  c-0.2,0.7-0.3,1.5,0,2.2C528.9,149.3,531.1,152,533.2,152.6z" style="fill: #3F63C8; fill-opacity: 1;"></path><path class="st1" d="M118,258.8c0.4,2.3,2.8,4.2,4.3,6.3l6.3-6.6c-2.9-2.2-4.8-4.6-6.8-4.7C120.6,253.8,117.8,257.3,118,258.8z" style="fill: #3F63C8; fill-opacity: 1;"></path><path class="st1" d="M257.8,138.2l12.6,20.2C271.3,152.2,261.3,137.9,257.8,138.2z" style="fill: #3F63C8; fill-opacity: 1;"></path><polygon class="st1" points="295.7,159 296.6,159 296.6,121 295.7,121.1 " style="fill: #3F63C8; fill-opacity: 1;"></polygon><polygon class="st1" points="295.1,156.8 295.1,129.6 294.7,129.6 294.7,156.9 " style="fill: #3F63C8; fill-opacity: 1;"></polygon><rect x="385.6" y="79.8" class="st1" width="0.3" height="22.3" style="fill: #3F63C8; fill-opacity: 1;"></rect><path class="st3" d="M346.6,341.7L346.6,341.7c-0.9-0.9-1.8-1.7-2.8-2.6c-2.3-2.2-4.7-4.3-7-6.5c-2.5-2.1-3.9-5.3-3.8-8.6  c0,0,0,0,0,0c0.1-6.6,0.2-13.1,0.1-19.7c0-6.5,0-13.1,0-19.6l0,0l1.3-0.6c4.6,4.3,9.2,8.6,13.7,12.9l11.8,11.2l0,0l3.9-9.8  c-16-15.7-31.9-31.4-47.8-47.2c-1.4-1.6-2.2-3.6-2.5-5.7c0-0.3-0.1-0.6-0.1-0.9c-0.4-7.5-0.3-15-0.2-22.5c0-1.5,0-3-0.2-4.5  c-0.9-6.4-4-12.3-9-16.6c-8.2-7.5-16-15.6-23.8-23.6c-1.5-1.5-2.4-3.5-2.8-5.5c0-0.3-0.1-0.5-0.1-0.8c-0.5-20-0.9-40-1-59.9  c0.2-3.1,1.1-6,2.8-8.6c1.5-2.5,2.1-4.9,1.7-7c-0.3-1.6-1.2-3-2.7-4.1c-3.1-2.2-7.4-1.6-9.6,1.5c0,0-0.1,0.1-0.1,0.1  c-2.4,3.5-1.5,8.3,2,10.8c0,0,0,0,0,0c0.2,0.2,0.5,0.3,0.7,0.4c2.5,1.4,3,3,2.9,5.6c-0.2,11.5-0.2,23-0.4,34.5  c-0.2,9.5,0.2,19.1-1.1,28.4c-0.8,5.8,0.3,10.1,4.1,14.1c5.9,6.3,11.7,12.7,17.8,18.9s10.1,12.5,8.7,21.6c-0.6,3.9,0,8-0.1,12  c-0.4,9.3,2.1,17.5,9.7,23.4c2.8,2.1,3.6,4.9,3.5,8.3c-0.4,15.5-0.5,31-1,46.4c-0.4,5.6,1.9,11,6.1,14.6c3.8,3.5,7.5,7,11.3,10.5  c3.3,3,6.6,6,9.9,9.1L346.6,341.7z M330.6,287c-0.9,12.2-0.2,24.5-0.2,37.8c-6.3-4.4-11.7-7.6-11.2-16.1c0.7-11.2,0.2-22.6,0.2-33.9  c0-1.4,0.2-2.9,0.3-5C326,274.5,331.3,278.1,330.6,287z" style="fill: #1a161a; fill-opacity: 1;"></path><path class="st3" d="M289,430.3c-5.1,0.4-7.5-1.4-8.7-6.3c-4.7-18.8-15.9-33.3-30-46.2c-5.1-4.6-10-10-13.3-16  c-10.1-18.4-22.5-35.4-36.8-50.8c-2.1-2.3-3.3-6.2-3.5-9.4c-0.7-12.6-0.8-25.3-1.2-37.9c0,0,0,0,0,0c-0.1-0.2-0.2-0.4-0.3-0.5  c0,0,0,0,0,0c-1.1-2.2-2.3-4.3-3.4-6.6c-4.8-10-9.4-20.2-14.4-30.1c-4-8-8.3-15.7-12.5-23.6c0,0,0,0,0-0.1c1.8,6.3,4,12.4,6.8,18.2  c3.7,7.5,8.1,14.5,11.9,21.9c5.8,11.3,10,22.9,9.9,35.6c0,1.8-0.1,3.7-0.3,5.5c-0.2,1.5-0.2,3-0.2,4.5c0,3,0.1,6,0.2,9  c0,1.5,0,3-0.1,4.5c0,0.4,0,0.8,0,1.2c-0.1,6,2.2,11,5.5,16c9.3,13.9,18.7,27.9,27.2,42.3c5.2,8.8,10.7,17.1,18.2,24.2  c5.1,4.8,9.9,9.9,14.3,15.3c6.6,8.2,10.1,18.1,13.4,29.2c0,0,0,0,0,0c-4.4,0-7.8,0-11.2,0c-24.3,0.1-48.6-0.2-72.7,4.1  c-0.5,0.1-1.1,0.1-1.6,0l-9.5,1.9c-5,1.9-9.8,3.8-14.6,3.9c-20.6,0.5-41.3,0.3-62,0.2c-1.9,0-3.7-1.8-5.6-2.2  c-2.7-0.6-5.6-1.1-8.1-0.5c-0.5,0.1-1.1,2.3-1.1,4.2c0,0.9,0.1,1.7,0.4,2.2c1.7,3.3,4.9,2.3,7.9,1.2c2.4-0.8,4.9-1.9,7.4-2  c17.5-0.2,35-0.1,52.5-0.1c1.8,0,3.5,0.2,5.3,0.2c0.1,0.3,0.2,0.7,0.4,1c0,0,0,0,0,0l-31,19.2c-2.4-2.2-4-4.7-6.3-5.4  c-1-0.3-3.2,2.9-4.8,4.5c-0.5,0.5-1,1.2-1.5,1.2c-5.5-0.1-11.1,2-16.4-1.6c-1.8-1.2-5.1-1.7-6.7-0.8c-2,1.1-4.3,4.1-4.1,6  c0.2,2.3,2.8,5.6,4.8,6c2.3,0.5,6.3-1.1,7.5-3.1c2.2-3.8,4.9-4.5,8.6-4.1c7.2,0.6,14.4,1.4,21.6,1.7c2.5,0.1,4.9-0.4,7.2-1.4  c2.9-1.3,5.6-2.9,8.1-4.9c21-16.3,45.5-21.1,71.3-21.4c23.3-0.2,46.7-0.2,70,0l2.6-10.1L289,430.3z" style="fill: #1a161a; fill-opacity: 1;"></path></svg></g> <g transform="rotate(0 362.61045775813596 287.4992284196479)"><svg y="266.0742253678901" viewBox="2.569999933242798 14.859999656677246 244.77999877929688 42.850006103515625" x="240.22045836848753" height="42.850006103515625" width="244.77999877929688" style="overflow: visible;"><g fill="#28394b" fill-opacity="1" style=""><path d="M41.08 37.14L41.08 37.14Q41.08 41.54 39.65 45.28Q38.23 49.02 35.65 51.82Q33.08 54.62 29.54 56.17Q26.00 57.71 21.83 57.71L21.83 57.71Q17.60 57.71 14.08 56.17Q10.57 54.62 8.00 51.82Q5.43 49.02 4.00 45.28Q2.57 41.54 2.57 37.14L2.57 37.14Q2.57 32.68 4.00 28.94Q5.43 25.20 8.00 22.43Q10.57 19.66 14.08 18.11Q17.60 16.57 21.83 16.57L21.83 16.57Q26.00 16.57 29.54 18.11Q33.08 19.66 35.65 22.43Q38.23 25.20 39.65 28.94Q41.08 32.68 41.08 37.14ZM36.17 37.14L36.17 37.14Q36.17 32.45 34.31 28.85Q32.45 25.26 29.25 23.20Q26.06 21.14 21.83 21.14L21.83 21.14Q17.60 21.14 14.37 23.20Q11.14 25.26 9.31 28.85Q7.49 32.45 7.49 37.14L7.49 37.14Q7.49 41.77 9.31 45.40Q11.14 49.02 14.37 51.08Q17.60 53.14 21.83 53.14L21.83 53.14Q26.06 53.14 29.25 51.08Q32.45 49.02 34.31 45.40Q36.17 41.77 36.17 37.14ZM77.94 27.31L77.94 27.31Q78.91 27.31 79.57 27.97Q80.22 28.63 80.22 29.60L80.22 29.60L80.22 54.80Q80.22 55.77 79.57 56.45Q78.91 57.14 77.94 57.14L77.94 57.14Q76.91 57.14 76.28 56.45Q75.65 55.77 75.65 54.80L75.65 54.80L75.65 49.37L76.74 49.25Q76.74 50.51 75.88 52.00Q75.02 53.48 73.54 54.77Q72.05 56.05 70.02 56.88Q67.99 57.71 65.65 57.71L65.65 57.71Q61.77 57.71 58.68 55.68Q55.60 53.65 53.80 50.17Q52.00 46.68 52.00 42.23L52.00 42.23Q52.00 37.71 53.80 34.25Q55.60 30.80 58.68 28.83Q61.77 26.86 65.54 26.86L65.54 26.86Q67.99 26.86 70.11 27.65Q72.22 28.45 73.79 29.83Q75.37 31.20 76.25 32.85Q77.14 34.51 77.14 36.17L77.14 36.17L75.65 35.83L75.65 29.60Q75.65 28.63 76.28 27.97Q76.91 27.31 77.94 27.31ZM66.17 53.48L66.17 53.48Q69.02 53.48 71.22 52.00Q73.42 50.51 74.65 47.97Q75.88 45.42 75.88 42.23L75.88 42.23Q75.88 39.08 74.65 36.54Q73.42 34.00 71.22 32.54Q69.02 31.08 66.17 31.08L66.17 31.08Q63.37 31.08 61.17 32.51Q58.97 33.94 57.71 36.45Q56.45 38.97 56.45 42.23L56.45 42.23Q56.45 45.42 57.68 47.97Q58.91 50.51 61.11 52.00Q63.31 53.48 66.17 53.48ZM97.14 57.14L97.14 57.14Q96.11 57.14 95.48 56.45Q94.85 55.77 94.85 54.80L94.85 54.80L94.85 17.14Q94.85 16.17 95.48 15.51Q96.11 14.86 97.14 14.86L97.14 14.86Q98.11 14.86 98.76 15.51Q99.42 16.17 99.42 17.14L99.42 17.14L99.42 54.80Q99.42 55.77 98.76 56.45Q98.11 57.14 97.14 57.14ZM116.11 27.43L116.11 27.43Q117.02 27.43 117.68 28.14Q118.33 28.85 118.33 29.60L118.33 29.60Q118.33 30.57 117.42 31.31L117.42 31.31L98.91 47.48L98.73 42.17L114.51 28.11Q115.19 27.43 116.11 27.43ZM116.73 57.08L116.73 57.08Q115.76 57.08 115.02 56.34L115.02 56.34L102.85 43.37L106.28 40.23L118.33 53.14Q119.02 53.88 119.02 54.85L119.02 54.85Q119.02 55.88 118.22 56.48Q117.42 57.08 116.73 57.08ZM135.76 52.62L154.22 52.62Q155.19 52.62 155.87 53.28Q156.56 53.94 156.56 54.91L156.56 54.91Q156.56 55.88 155.87 56.51Q155.19 57.14 154.22 57.14L154.22 57.14L134.45 57.14Q133.48 57.14 132.82 56.45Q132.16 55.77 132.16 54.80L132.16 54.80L132.16 19.43Q132.16 18.46 132.85 17.80Q133.53 17.14 134.56 17.14L134.56 17.14Q135.53 17.14 136.22 17.80Q136.90 18.46 136.90 19.43L136.90 19.43L136.90 53.65L135.76 52.62ZM172.44 29.43L172.44 54.80Q172.44 55.77 171.79 56.45Q171.13 57.14 170.16 57.14L170.16 57.14Q169.13 57.14 168.50 56.45Q167.87 55.77 167.87 54.80L167.87 54.80L167.87 29.43Q167.87 28.45 168.53 27.80Q169.19 27.14 170.16 27.14L170.16 27.14Q171.13 27.14 171.79 27.80Q172.44 28.45 172.44 29.43L172.44 29.43ZM170.16 23.31L170.16 23.31Q168.73 23.31 168.04 22.74Q167.36 22.17 167.36 20.97L167.36 20.97L167.36 20.17Q167.36 18.97 168.10 18.40Q168.84 17.83 170.21 17.83L170.21 17.83Q171.59 17.83 172.27 18.40Q172.96 18.97 172.96 20.17L172.96 20.17L172.96 20.97Q172.96 22.17 172.24 22.74Q171.53 23.31 170.16 23.31ZM201.07 26.86L201.07 26.86Q204.96 26.86 207.18 28.45Q209.41 30.05 210.35 32.74Q211.30 35.43 211.30 38.74L211.30 38.74L211.30 54.80Q211.30 55.77 210.64 56.45Q209.98 57.14 209.01 57.14L209.01 57.14Q208.04 57.14 207.38 56.45Q206.73 55.77 206.73 54.80L206.73 54.80L206.73 38.85Q206.73 36.68 206.07 34.94Q205.41 33.20 203.90 32.14Q202.38 31.08 199.76 31.08L199.76 31.08Q197.36 31.08 195.36 32.14Q193.36 33.20 192.16 34.94Q190.96 36.68 190.96 38.85L190.96 38.85L190.96 54.80Q190.96 55.77 190.30 56.45Q189.64 57.14 188.67 57.14L188.67 57.14Q187.70 57.14 187.04 56.45Q186.39 55.77 186.39 54.80L186.39 54.80L186.39 29.88Q186.39 28.91 187.04 28.25Q187.70 27.60 188.67 27.60L188.67 27.60Q189.70 27.60 190.33 28.25Q190.96 28.91 190.96 29.88L190.96 29.88L190.96 33.94L189.81 35.20Q190.10 33.71 191.13 32.20Q192.16 30.68 193.70 29.48Q195.24 28.28 197.13 27.57Q199.01 26.86 201.07 26.86ZM225.18 27.25L225.18 27.25Q226.27 27.25 227.01 28.23L227.01 28.23L246.89 53.60Q247.35 54.22 247.35 54.97L247.35 54.97Q247.35 55.94 246.67 56.62Q245.98 57.31 245.07 57.31L245.07 57.31Q243.98 57.31 243.18 56.28L243.18 56.28L223.30 30.97Q222.84 30.34 222.84 29.60L222.84 29.60Q222.84 28.57 223.55 27.91Q224.27 27.25 225.18 27.25ZM225.18 57.25L225.18 57.25Q224.44 57.25 223.70 56.68Q222.95 56.11 222.95 55.20L222.95 55.20Q222.95 54.45 223.53 53.77L223.53 53.77L232.90 41.94L235.30 45.71L227.01 56.34Q226.32 57.25 225.18 57.25ZM245.07 27.25L245.07 27.25Q246.04 27.25 246.64 27.88Q247.24 28.51 247.24 29.31L247.24 29.31Q247.24 29.65 247.09 30.05Q246.95 30.45 246.67 30.80L246.67 30.80L237.35 42.74L234.95 39.25L243.18 28.28Q243.98 27.25 245.07 27.25Z" transform="translate(0, 0)"></path></g></svg></g></svg>